<?xml version="1.0" standalone="no"?>
<!DOCTYPE svg PUBLIC "-//W3C//DTD SVG 20010904//EN"
 "http://www.w3.org/TR/2001/REC-SVG-20010904/DTD/svg10.dtd">
<svg version="1.0" xmlns="http://www.w3.org/2000/svg"
 width="128.000000pt" height="128.000000pt" viewBox="0 0 128.000000 128.000000"
 preserveAspectRatio="xMidYMid meet">

<g transform="translate(0.000000,128.000000) scale(0.100000,-0.100000)"
fill="#000000" stroke="none">
<path d="M415 1156 c-59 -27 -95 -87 -95 -162 0 -31 -1 -31 -57 -37 -63 -7
-96 -26 -130 -77 -23 -32 -23 -38 -23 -342 0 -290 1 -311 20 -348 13 -26 34
-47 61 -60 38 -20 54 -21 354 -18 299 3 315 4 341 24 46 34 65 67 71 126 l6
55 55 6 c59 6 92 25 126 71 20 26 21 40 21 354 0 454 31 422 -417 422 -230 -1
-310 -4 -333 -14z m655 -444 c0 -186 -3 -253 -13 -266 -7 -9 -32 -20 -55 -23
l-42 -6 0 205 c0 191 -1 206 -22 248 -17 33 -35 51 -68 68 l-44 22 122 0 122
0 0 -248z m-215 -220 c0 -240 -1 -254 -19 -268 -16 -11 -75 -14 -305 -14 -251
0 -287 2 -303 17 -17 15 -18 37 -18 270 l0 253 323 -2 322 -3 0 -253z"/>
</g>
</svg>
