<?xml version="1.0" standalone="no"?>
<!DOCTYPE svg PUBLIC "-//W3C//DTD SVG 20010904//EN"
 "http://www.w3.org/TR/2001/REC-SVG-20010904/DTD/svg10.dtd">
<svg version="1.0" xmlns="http://www.w3.org/2000/svg"
 width="605.000000pt" height="412.000000pt" viewBox="0 0 605.000000 412.000000"
 preserveAspectRatio="xMidYMid meet">

<g transform="translate(0.000000,412.000000) scale(0.100000,-0.100000)"
fill="#000" stroke="none">
<path d="M1657 3880 c-201 -64 -331 -280 -288 -479 25 -116 34 -128 572 -743
285 -326 519 -595 519 -598 0 -3 -234 -272 -519 -598 -376 -429 -524 -606
-540 -641 -48 -112 -52 -214 -12 -325 95 -270 439 -363 664 -180 15 13 237
263 494 556 256 293 472 533 478 533 6 0 222 -240 478 -533 257 -293 479 -543
494 -556 111 -91 257 -119 394 -76 248 77 367 353 253 588 -17 35 -190 240
-540 640 -282 323 -514 589 -514 592 0 3 234 272 519 598 374 427 525 607 540
642 47 110 51 213 12 326 -95 268 -440 360 -663 178 -15 -12 -238 -262 -494
-556 -257 -293 -472 -533 -479 -533 -6 0 -222 240 -478 533 -257 293 -479 543
-494 556 -111 90 -262 119 -396 76z"/>
</g>
</svg>
